<mxfile host="app.diagrams.net" modified="2021-05-22T03:36:21.890Z" agent="5.0 (Windows NT 10.0; Win64; x64) AppleWebKit/537.36 (KHTML, like Gecko) Chrome/90.0.4430.212 Safari/537.36" etag="Wj_lWCg042Fw-vGLH4Ld" version="14.7.0" type="github">
  <diagram id="QHm2DTe5CyuroTfaVQF_" name="Page-2">
    <mxGraphModel dx="1718" dy="1831" grid="1" gridSize="10" guides="1" tooltips="1" connect="1" arrows="1" fold="1" page="1" pageScale="1" pageWidth="827" pageHeight="1169" math="0" shadow="0">
      <root>
        <mxCell id="85T4zdCJmLSqGXaU--T0-0" />
        <mxCell id="85T4zdCJmLSqGXaU--T0-1" parent="85T4zdCJmLSqGXaU--T0-0" />
        <mxCell id="ozIvUlVLJT3WlN5ytKYM-2" value="" style="fontStyle=1;align=center;verticalAlign=top;childLayout=stackLayout;horizontal=1;horizontalStack=0;resizeParent=1;resizeParentMax=0;resizeLast=0;marginBottom=0;" parent="85T4zdCJmLSqGXaU--T0-1" vertex="1">
          <mxGeometry x="160" y="-1040" width="140" height="161" as="geometry" />
        </mxCell>
        <mxCell id="ozIvUlVLJT3WlN5ytKYM-3" value="&lt;span style=&quot;text-align: center&quot;&gt;Notification Client&lt;/span&gt;" style="html=1;align=left;spacingLeft=4;verticalAlign=top;strokeColor=none;fillColor=none;" parent="ozIvUlVLJT3WlN5ytKYM-2" vertex="1">
          <mxGeometry width="140" height="40" as="geometry" />
        </mxCell>
        <mxCell id="ozIvUlVLJT3WlN5ytKYM-4" value="" style="shape=module;jettyWidth=10;jettyHeight=4;" parent="ozIvUlVLJT3WlN5ytKYM-3" vertex="1">
          <mxGeometry x="1" width="16" height="20" relative="1" as="geometry">
            <mxPoint x="-25" y="9" as="offset" />
          </mxGeometry>
        </mxCell>
        <mxCell id="ozIvUlVLJT3WlN5ytKYM-5" value="" style="line;strokeWidth=1;fillColor=none;align=left;verticalAlign=middle;spacingTop=-1;spacingLeft=3;spacingRight=3;rotatable=0;labelPosition=right;points=[];portConstraint=eastwest;" parent="ozIvUlVLJT3WlN5ytKYM-2" vertex="1">
          <mxGeometry y="40" width="140" height="8" as="geometry" />
        </mxCell>
        <mxCell id="ozIvUlVLJT3WlN5ytKYM-6" value="provided interfaces" style="html=1;align=center;spacingLeft=4;verticalAlign=top;strokeColor=none;fillColor=none;" parent="ozIvUlVLJT3WlN5ytKYM-2" vertex="1">
          <mxGeometry y="48" width="140" height="25" as="geometry" />
        </mxCell>
        <mxCell id="ozIvUlVLJT3WlN5ytKYM-7" value="&lt;span style=&quot;text-align: center&quot;&gt;Send&amp;lt;T&amp;gt;(T message)&lt;/span&gt;" style="html=1;align=left;spacingLeft=4;verticalAlign=top;strokeColor=none;fillColor=none;" parent="ozIvUlVLJT3WlN5ytKYM-2" vertex="1">
          <mxGeometry y="73" width="140" height="25" as="geometry" />
        </mxCell>
        <mxCell id="ozIvUlVLJT3WlN5ytKYM-8" value="" style="line;strokeWidth=1;fillColor=none;align=left;verticalAlign=middle;spacingTop=-1;spacingLeft=3;spacingRight=3;rotatable=0;labelPosition=right;points=[];portConstraint=eastwest;" parent="ozIvUlVLJT3WlN5ytKYM-2" vertex="1">
          <mxGeometry y="98" width="140" height="8" as="geometry" />
        </mxCell>
        <mxCell id="ozIvUlVLJT3WlN5ytKYM-9" value="required interfaces" style="html=1;align=center;spacingLeft=4;verticalAlign=top;strokeColor=none;fillColor=none;" parent="ozIvUlVLJT3WlN5ytKYM-2" vertex="1">
          <mxGeometry y="106" width="140" height="25" as="geometry" />
        </mxCell>
        <mxCell id="ozIvUlVLJT3WlN5ytKYM-10" value="INotificatorProviders" style="html=1;align=left;spacingLeft=4;verticalAlign=top;strokeColor=none;fillColor=none;" parent="ozIvUlVLJT3WlN5ytKYM-2" vertex="1">
          <mxGeometry y="131" width="140" height="30" as="geometry" />
        </mxCell>
        <mxCell id="ozIvUlVLJT3WlN5ytKYM-11" value="" style="fontStyle=1;align=center;verticalAlign=top;childLayout=stackLayout;horizontal=1;horizontalStack=0;resizeParent=1;resizeParentMax=0;resizeLast=0;marginBottom=0;" parent="85T4zdCJmLSqGXaU--T0-1" vertex="1">
          <mxGeometry x="120" y="-830" width="140" height="161" as="geometry" />
        </mxCell>
        <mxCell id="ozIvUlVLJT3WlN5ytKYM-12" value="Email" style="html=1;align=left;spacingLeft=4;verticalAlign=top;strokeColor=none;fillColor=none;" parent="ozIvUlVLJT3WlN5ytKYM-11" vertex="1">
          <mxGeometry width="140" height="40" as="geometry" />
        </mxCell>
        <mxCell id="ozIvUlVLJT3WlN5ytKYM-13" value="" style="shape=module;jettyWidth=10;jettyHeight=4;" parent="ozIvUlVLJT3WlN5ytKYM-12" vertex="1">
          <mxGeometry x="1" width="16" height="20" relative="1" as="geometry">
            <mxPoint x="-25" y="9" as="offset" />
          </mxGeometry>
        </mxCell>
        <mxCell id="ozIvUlVLJT3WlN5ytKYM-14" value="" style="line;strokeWidth=1;fillColor=none;align=left;verticalAlign=middle;spacingTop=-1;spacingLeft=3;spacingRight=3;rotatable=0;labelPosition=right;points=[];portConstraint=eastwest;" parent="ozIvUlVLJT3WlN5ytKYM-11" vertex="1">
          <mxGeometry y="40" width="140" height="8" as="geometry" />
        </mxCell>
        <mxCell id="ozIvUlVLJT3WlN5ytKYM-15" value="provided interfaces" style="html=1;align=center;spacingLeft=4;verticalAlign=top;strokeColor=none;fillColor=none;" parent="ozIvUlVLJT3WlN5ytKYM-11" vertex="1">
          <mxGeometry y="48" width="140" height="25" as="geometry" />
        </mxCell>
        <mxCell id="ozIvUlVLJT3WlN5ytKYM-16" value="Send&amp;lt;Email&amp;gt;" style="html=1;align=left;spacingLeft=4;verticalAlign=top;strokeColor=none;fillColor=none;" parent="ozIvUlVLJT3WlN5ytKYM-11" vertex="1">
          <mxGeometry y="73" width="140" height="25" as="geometry" />
        </mxCell>
        <mxCell id="ozIvUlVLJT3WlN5ytKYM-17" value="" style="line;strokeWidth=1;fillColor=none;align=left;verticalAlign=middle;spacingTop=-1;spacingLeft=3;spacingRight=3;rotatable=0;labelPosition=right;points=[];portConstraint=eastwest;" parent="ozIvUlVLJT3WlN5ytKYM-11" vertex="1">
          <mxGeometry y="98" width="140" height="8" as="geometry" />
        </mxCell>
        <mxCell id="ozIvUlVLJT3WlN5ytKYM-18" value="required interfaces" style="html=1;align=center;spacingLeft=4;verticalAlign=top;strokeColor=none;fillColor=none;" parent="ozIvUlVLJT3WlN5ytKYM-11" vertex="1">
          <mxGeometry y="106" width="140" height="25" as="geometry" />
        </mxCell>
        <mxCell id="ozIvUlVLJT3WlN5ytKYM-19" value="Interface2" style="html=1;align=left;spacingLeft=4;verticalAlign=top;strokeColor=none;fillColor=none;" parent="ozIvUlVLJT3WlN5ytKYM-11" vertex="1">
          <mxGeometry y="131" width="140" height="30" as="geometry" />
        </mxCell>
        <mxCell id="ozIvUlVLJT3WlN5ytKYM-20" value="" style="fontStyle=1;align=center;verticalAlign=top;childLayout=stackLayout;horizontal=1;horizontalStack=0;resizeParent=1;resizeParentMax=0;resizeLast=0;marginBottom=0;" parent="85T4zdCJmLSqGXaU--T0-1" vertex="1">
          <mxGeometry x="274" y="-830" width="140" height="161" as="geometry" />
        </mxCell>
        <mxCell id="ozIvUlVLJT3WlN5ytKYM-21" value="Sms" style="html=1;align=left;spacingLeft=4;verticalAlign=top;strokeColor=none;fillColor=none;" parent="ozIvUlVLJT3WlN5ytKYM-20" vertex="1">
          <mxGeometry width="140" height="40" as="geometry" />
        </mxCell>
        <mxCell id="ozIvUlVLJT3WlN5ytKYM-22" value="" style="shape=module;jettyWidth=10;jettyHeight=4;" parent="ozIvUlVLJT3WlN5ytKYM-21" vertex="1">
          <mxGeometry x="1" width="16" height="20" relative="1" as="geometry">
            <mxPoint x="-25" y="9" as="offset" />
          </mxGeometry>
        </mxCell>
        <mxCell id="ozIvUlVLJT3WlN5ytKYM-23" value="" style="line;strokeWidth=1;fillColor=none;align=left;verticalAlign=middle;spacingTop=-1;spacingLeft=3;spacingRight=3;rotatable=0;labelPosition=right;points=[];portConstraint=eastwest;" parent="ozIvUlVLJT3WlN5ytKYM-20" vertex="1">
          <mxGeometry y="40" width="140" height="8" as="geometry" />
        </mxCell>
        <mxCell id="ozIvUlVLJT3WlN5ytKYM-24" value="provided interfaces" style="html=1;align=center;spacingLeft=4;verticalAlign=top;strokeColor=none;fillColor=none;" parent="ozIvUlVLJT3WlN5ytKYM-20" vertex="1">
          <mxGeometry y="48" width="140" height="25" as="geometry" />
        </mxCell>
        <mxCell id="ozIvUlVLJT3WlN5ytKYM-25" value="Send&amp;lt;SMS&amp;gt;" style="html=1;align=left;spacingLeft=4;verticalAlign=top;strokeColor=none;fillColor=none;" parent="ozIvUlVLJT3WlN5ytKYM-20" vertex="1">
          <mxGeometry y="73" width="140" height="25" as="geometry" />
        </mxCell>
        <mxCell id="ozIvUlVLJT3WlN5ytKYM-26" value="" style="line;strokeWidth=1;fillColor=none;align=left;verticalAlign=middle;spacingTop=-1;spacingLeft=3;spacingRight=3;rotatable=0;labelPosition=right;points=[];portConstraint=eastwest;" parent="ozIvUlVLJT3WlN5ytKYM-20" vertex="1">
          <mxGeometry y="98" width="140" height="8" as="geometry" />
        </mxCell>
        <mxCell id="ozIvUlVLJT3WlN5ytKYM-27" value="required interfaces" style="html=1;align=center;spacingLeft=4;verticalAlign=top;strokeColor=none;fillColor=none;" parent="ozIvUlVLJT3WlN5ytKYM-20" vertex="1">
          <mxGeometry y="106" width="140" height="25" as="geometry" />
        </mxCell>
        <mxCell id="ozIvUlVLJT3WlN5ytKYM-28" value="Interface2" style="html=1;align=left;spacingLeft=4;verticalAlign=top;strokeColor=none;fillColor=none;" parent="ozIvUlVLJT3WlN5ytKYM-20" vertex="1">
          <mxGeometry y="131" width="140" height="30" as="geometry" />
        </mxCell>
        <mxCell id="ozIvUlVLJT3WlN5ytKYM-29" value="" style="fontStyle=1;align=center;verticalAlign=top;childLayout=stackLayout;horizontal=1;horizontalStack=0;resizeParent=1;resizeParentMax=0;resizeLast=0;marginBottom=0;" parent="85T4zdCJmLSqGXaU--T0-1" vertex="1">
          <mxGeometry x="425.4" y="-830" width="140" height="161" as="geometry" />
        </mxCell>
        <mxCell id="ozIvUlVLJT3WlN5ytKYM-30" value="Push" style="html=1;align=left;spacingLeft=4;verticalAlign=top;strokeColor=none;fillColor=none;" parent="ozIvUlVLJT3WlN5ytKYM-29" vertex="1">
          <mxGeometry width="140" height="40" as="geometry" />
        </mxCell>
        <mxCell id="ozIvUlVLJT3WlN5ytKYM-31" value="" style="shape=module;jettyWidth=10;jettyHeight=4;" parent="ozIvUlVLJT3WlN5ytKYM-30" vertex="1">
          <mxGeometry x="1" width="16" height="20" relative="1" as="geometry">
            <mxPoint x="-25" y="9" as="offset" />
          </mxGeometry>
        </mxCell>
        <mxCell id="ozIvUlVLJT3WlN5ytKYM-32" value="" style="line;strokeWidth=1;fillColor=none;align=left;verticalAlign=middle;spacingTop=-1;spacingLeft=3;spacingRight=3;rotatable=0;labelPosition=right;points=[];portConstraint=eastwest;" parent="ozIvUlVLJT3WlN5ytKYM-29" vertex="1">
          <mxGeometry y="40" width="140" height="8" as="geometry" />
        </mxCell>
        <mxCell id="ozIvUlVLJT3WlN5ytKYM-33" value="provided interfaces" style="html=1;align=center;spacingLeft=4;verticalAlign=top;strokeColor=none;fillColor=none;" parent="ozIvUlVLJT3WlN5ytKYM-29" vertex="1">
          <mxGeometry y="48" width="140" height="25" as="geometry" />
        </mxCell>
        <mxCell id="ozIvUlVLJT3WlN5ytKYM-34" value="Send&amp;lt;Push&amp;gt;" style="html=1;align=left;spacingLeft=4;verticalAlign=top;strokeColor=none;fillColor=none;" parent="ozIvUlVLJT3WlN5ytKYM-29" vertex="1">
          <mxGeometry y="73" width="140" height="25" as="geometry" />
        </mxCell>
        <mxCell id="ozIvUlVLJT3WlN5ytKYM-35" value="" style="line;strokeWidth=1;fillColor=none;align=left;verticalAlign=middle;spacingTop=-1;spacingLeft=3;spacingRight=3;rotatable=0;labelPosition=right;points=[];portConstraint=eastwest;" parent="ozIvUlVLJT3WlN5ytKYM-29" vertex="1">
          <mxGeometry y="98" width="140" height="8" as="geometry" />
        </mxCell>
        <mxCell id="ozIvUlVLJT3WlN5ytKYM-36" value="required interfaces" style="html=1;align=center;spacingLeft=4;verticalAlign=top;strokeColor=none;fillColor=none;" parent="ozIvUlVLJT3WlN5ytKYM-29" vertex="1">
          <mxGeometry y="106" width="140" height="25" as="geometry" />
        </mxCell>
        <mxCell id="ozIvUlVLJT3WlN5ytKYM-37" value="Interface2" style="html=1;align=left;spacingLeft=4;verticalAlign=top;strokeColor=none;fillColor=none;" parent="ozIvUlVLJT3WlN5ytKYM-29" vertex="1">
          <mxGeometry y="131" width="140" height="30" as="geometry" />
        </mxCell>
        <mxCell id="ozIvUlVLJT3WlN5ytKYM-38" value="" style="fontStyle=1;align=center;verticalAlign=top;childLayout=stackLayout;horizontal=1;horizontalStack=0;resizeParent=1;resizeParentMax=0;resizeLast=0;marginBottom=0;" parent="85T4zdCJmLSqGXaU--T0-1" vertex="1">
          <mxGeometry x="344" y="-1040" width="140" height="136" as="geometry" />
        </mxCell>
        <mxCell id="ozIvUlVLJT3WlN5ytKYM-39" value="Notification" style="html=1;align=left;spacingLeft=4;verticalAlign=top;strokeColor=none;fillColor=none;" parent="ozIvUlVLJT3WlN5ytKYM-38" vertex="1">
          <mxGeometry width="140" height="40" as="geometry" />
        </mxCell>
        <mxCell id="ozIvUlVLJT3WlN5ytKYM-40" value="" style="shape=module;jettyWidth=10;jettyHeight=4;" parent="ozIvUlVLJT3WlN5ytKYM-39" vertex="1">
          <mxGeometry x="1" width="16" height="20" relative="1" as="geometry">
            <mxPoint x="-25" y="9" as="offset" />
          </mxGeometry>
        </mxCell>
        <mxCell id="ozIvUlVLJT3WlN5ytKYM-41" value="" style="line;strokeWidth=1;fillColor=none;align=left;verticalAlign=middle;spacingTop=-1;spacingLeft=3;spacingRight=3;rotatable=0;labelPosition=right;points=[];portConstraint=eastwest;" parent="ozIvUlVLJT3WlN5ytKYM-38" vertex="1">
          <mxGeometry y="40" width="140" height="8" as="geometry" />
        </mxCell>
        <mxCell id="Q_7yFQn-fByA-fb3hpc2-0" value="Headers" style="html=1;align=center;spacingLeft=4;verticalAlign=top;strokeColor=none;fillColor=none;" parent="ozIvUlVLJT3WlN5ytKYM-38" vertex="1">
          <mxGeometry y="48" width="140" height="25" as="geometry" />
        </mxCell>
        <mxCell id="ozIvUlVLJT3WlN5ytKYM-44" value="" style="line;strokeWidth=1;fillColor=none;align=left;verticalAlign=middle;spacingTop=-1;spacingLeft=3;spacingRight=3;rotatable=0;labelPosition=right;points=[];portConstraint=eastwest;" parent="ozIvUlVLJT3WlN5ytKYM-38" vertex="1">
          <mxGeometry y="73" width="140" height="8" as="geometry" />
        </mxCell>
        <mxCell id="ozIvUlVLJT3WlN5ytKYM-45" value="required interfaces" style="html=1;align=center;spacingLeft=4;verticalAlign=top;strokeColor=none;fillColor=none;" parent="ozIvUlVLJT3WlN5ytKYM-38" vertex="1">
          <mxGeometry y="81" width="140" height="25" as="geometry" />
        </mxCell>
        <mxCell id="ozIvUlVLJT3WlN5ytKYM-46" value="Interface2" style="html=1;align=left;spacingLeft=4;verticalAlign=top;strokeColor=none;fillColor=none;" parent="ozIvUlVLJT3WlN5ytKYM-38" vertex="1">
          <mxGeometry y="106" width="140" height="30" as="geometry" />
        </mxCell>
        <mxCell id="ozIvUlVLJT3WlN5ytKYM-48" value="" style="fontStyle=1;align=center;verticalAlign=top;childLayout=stackLayout;horizontal=1;horizontalStack=0;resizeParent=1;resizeParentMax=0;resizeLast=0;marginBottom=0;" parent="85T4zdCJmLSqGXaU--T0-1" vertex="1">
          <mxGeometry x="380" y="-620" width="140" height="161" as="geometry" />
        </mxCell>
        <mxCell id="ozIvUlVLJT3WlN5ytKYM-49" value="BamNotification" style="html=1;align=left;spacingLeft=4;verticalAlign=top;strokeColor=none;fillColor=none;" parent="ozIvUlVLJT3WlN5ytKYM-48" vertex="1">
          <mxGeometry width="140" height="40" as="geometry" />
        </mxCell>
        <mxCell id="ozIvUlVLJT3WlN5ytKYM-50" value="" style="shape=module;jettyWidth=10;jettyHeight=4;" parent="ozIvUlVLJT3WlN5ytKYM-49" vertex="1">
          <mxGeometry x="1" width="16" height="20" relative="1" as="geometry">
            <mxPoint x="-25" y="9" as="offset" />
          </mxGeometry>
        </mxCell>
        <mxCell id="ozIvUlVLJT3WlN5ytKYM-51" value="" style="line;strokeWidth=1;fillColor=none;align=left;verticalAlign=middle;spacingTop=-1;spacingLeft=3;spacingRight=3;rotatable=0;labelPosition=right;points=[];portConstraint=eastwest;" parent="ozIvUlVLJT3WlN5ytKYM-48" vertex="1">
          <mxGeometry y="40" width="140" height="8" as="geometry" />
        </mxCell>
        <mxCell id="ozIvUlVLJT3WlN5ytKYM-57" value="Emails" style="html=1;align=left;spacingLeft=4;verticalAlign=top;strokeColor=none;fillColor=none;" parent="ozIvUlVLJT3WlN5ytKYM-48" vertex="1">
          <mxGeometry y="48" width="140" height="25" as="geometry" />
        </mxCell>
        <mxCell id="ozIvUlVLJT3WlN5ytKYM-53" value="Push" style="html=1;align=left;spacingLeft=4;verticalAlign=top;strokeColor=none;fillColor=none;" parent="ozIvUlVLJT3WlN5ytKYM-48" vertex="1">
          <mxGeometry y="73" width="140" height="25" as="geometry" />
        </mxCell>
        <mxCell id="ozIvUlVLJT3WlN5ytKYM-54" value="" style="line;strokeWidth=1;fillColor=none;align=left;verticalAlign=middle;spacingTop=-1;spacingLeft=3;spacingRight=3;rotatable=0;labelPosition=right;points=[];portConstraint=eastwest;" parent="ozIvUlVLJT3WlN5ytKYM-48" vertex="1">
          <mxGeometry y="98" width="140" height="8" as="geometry" />
        </mxCell>
        <mxCell id="ozIvUlVLJT3WlN5ytKYM-55" value="required interfaces" style="html=1;align=center;spacingLeft=4;verticalAlign=top;strokeColor=none;fillColor=none;" parent="ozIvUlVLJT3WlN5ytKYM-48" vertex="1">
          <mxGeometry y="106" width="140" height="25" as="geometry" />
        </mxCell>
        <mxCell id="ozIvUlVLJT3WlN5ytKYM-56" value="Interface2" style="html=1;align=left;spacingLeft=4;verticalAlign=top;strokeColor=none;fillColor=none;" parent="ozIvUlVLJT3WlN5ytKYM-48" vertex="1">
          <mxGeometry y="131" width="140" height="30" as="geometry" />
        </mxCell>
        <mxCell id="ozIvUlVLJT3WlN5ytKYM-58" value="" style="fontStyle=1;align=center;verticalAlign=top;childLayout=stackLayout;horizontal=1;horizontalStack=0;resizeParent=1;resizeParentMax=0;resizeLast=0;marginBottom=0;" parent="85T4zdCJmLSqGXaU--T0-1" vertex="1">
          <mxGeometry x="210" y="-620" width="140" height="211" as="geometry" />
        </mxCell>
        <mxCell id="ozIvUlVLJT3WlN5ytKYM-59" value="EmailNotification" style="html=1;align=left;spacingLeft=4;verticalAlign=top;strokeColor=none;fillColor=none;" parent="ozIvUlVLJT3WlN5ytKYM-58" vertex="1">
          <mxGeometry width="140" height="40" as="geometry" />
        </mxCell>
        <mxCell id="ozIvUlVLJT3WlN5ytKYM-60" value="" style="shape=module;jettyWidth=10;jettyHeight=4;" parent="ozIvUlVLJT3WlN5ytKYM-59" vertex="1">
          <mxGeometry x="1" width="16" height="20" relative="1" as="geometry">
            <mxPoint x="-25" y="9" as="offset" />
          </mxGeometry>
        </mxCell>
        <mxCell id="ozIvUlVLJT3WlN5ytKYM-61" value="" style="line;strokeWidth=1;fillColor=none;align=left;verticalAlign=middle;spacingTop=-1;spacingLeft=3;spacingRight=3;rotatable=0;labelPosition=right;points=[];portConstraint=eastwest;" parent="ozIvUlVLJT3WlN5ytKYM-58" vertex="1">
          <mxGeometry y="40" width="140" height="8" as="geometry" />
        </mxCell>
        <mxCell id="ozIvUlVLJT3WlN5ytKYM-67" value="Subject" style="html=1;align=left;spacingLeft=4;verticalAlign=top;strokeColor=none;fillColor=none;" parent="ozIvUlVLJT3WlN5ytKYM-58" vertex="1">
          <mxGeometry y="48" width="140" height="25" as="geometry" />
        </mxCell>
        <mxCell id="ozIvUlVLJT3WlN5ytKYM-68" value="Body" style="html=1;align=left;spacingLeft=4;verticalAlign=top;strokeColor=none;fillColor=none;" parent="ozIvUlVLJT3WlN5ytKYM-58" vertex="1">
          <mxGeometry y="73" width="140" height="25" as="geometry" />
        </mxCell>
        <mxCell id="ozIvUlVLJT3WlN5ytKYM-69" value="Destinataries" style="html=1;align=left;spacingLeft=4;verticalAlign=top;strokeColor=none;fillColor=none;" parent="ozIvUlVLJT3WlN5ytKYM-58" vertex="1">
          <mxGeometry y="98" width="140" height="25" as="geometry" />
        </mxCell>
        <mxCell id="ozIvUlVLJT3WlN5ytKYM-62" value="CanUse(INP)" style="html=1;align=left;spacingLeft=4;verticalAlign=top;strokeColor=none;fillColor=none;" parent="ozIvUlVLJT3WlN5ytKYM-58" vertex="1">
          <mxGeometry y="123" width="140" height="25" as="geometry" />
        </mxCell>
        <mxCell id="ozIvUlVLJT3WlN5ytKYM-64" value="" style="line;strokeWidth=1;fillColor=none;align=left;verticalAlign=middle;spacingTop=-1;spacingLeft=3;spacingRight=3;rotatable=0;labelPosition=right;points=[];portConstraint=eastwest;" parent="ozIvUlVLJT3WlN5ytKYM-58" vertex="1">
          <mxGeometry y="148" width="140" height="8" as="geometry" />
        </mxCell>
        <mxCell id="ozIvUlVLJT3WlN5ytKYM-65" value="required interfaces" style="html=1;align=center;spacingLeft=4;verticalAlign=top;strokeColor=none;fillColor=none;" parent="ozIvUlVLJT3WlN5ytKYM-58" vertex="1">
          <mxGeometry y="156" width="140" height="25" as="geometry" />
        </mxCell>
        <mxCell id="ozIvUlVLJT3WlN5ytKYM-66" value="Interface2" style="html=1;align=left;spacingLeft=4;verticalAlign=top;strokeColor=none;fillColor=none;" parent="ozIvUlVLJT3WlN5ytKYM-58" vertex="1">
          <mxGeometry y="181" width="140" height="30" as="geometry" />
        </mxCell>
        <mxCell id="3N4l-U33sg08OgVx_DuV-0" value="" style="rounded=0;whiteSpace=wrap;html=1;" vertex="1" parent="85T4zdCJmLSqGXaU--T0-1">
          <mxGeometry x="570" y="-1020" width="120" height="60" as="geometry" />
        </mxCell>
      </root>
    </mxGraphModel>
  </diagram>
</mxfile>
